<svg xmlns="http://www.w3.org/2000/svg" width="1254" height="1254" viewBox="0 0 1254 1254">
<rect width="1254" height="1254" fill="#ffffff"/>
<path d="M 435,1074 L 428,1075 L 428,1080 L 432,1079 Z" fill="#111820" fill-rule="evenodd"/>
<path d="M 1105,734 L 1034,738 L 942,748 L 875,758 L 779,778 L 772,791 L 748,820 L 748,823 L 849,790 L 948,763 L 1033,746 L 1105,736 Z" fill="#111820" fill-rule="evenodd"/>
<path d="M 681,683 L 679,681 L 671,682 L 663,689 L 659,697 L 672,688 L 682,692 Z" fill="#111820" fill-rule="evenodd"/>
<path d="M 540,507 L 532,506 L 528,512 L 531,532 L 534,531 L 544,512 L 544,509 Z" fill="#111820" fill-rule="evenodd"/>
<path d="M 461,506 L 427,512 L 370,528 L 301,556 L 256,580 L 214,607 L 147,661 L 96,714 L 59,762 L 59,884 L 61,884 L 99,827 L 141,775 L 202,712 L 237,681 L 290,640 L 349,602 L 405,574 L 446,559 L 447,539 L 451,526 Z" fill="#111820" fill-rule="evenodd"/>
<path d="M 564,468 L 556,472 L 548,482 L 545,491 L 545,506 L 548,505 L 562,476 Z" fill="#111820" fill-rule="evenodd"/>
<path d="M 494,435 L 494,475 L 500,507 L 518,500 L 518,498 L 508,500 L 506,497 L 497,459 L 496,435 Z" fill="#111820" fill-rule="evenodd"/>
<path d="M 947,528 L 934,526 L 927,530 L 922,547 L 920,578 L 925,581 L 927,577 L 930,576 L 931,579 L 915,628 L 908,665 L 905,668 L 899,669 L 898,665 L 903,640 L 887,646 L 884,654 L 878,652 L 877,649 L 880,644 L 883,628 L 882,617 L 876,611 L 870,611 L 861,614 L 860,611 L 871,606 L 877,598 L 893,599 L 893,593 L 896,592 L 899,600 L 899,609 L 890,640 L 900,635 L 907,626 L 916,565 L 906,573 L 896,575 L 894,583 L 889,581 L 884,582 L 772,544 L 764,543 L 761,545 L 760,542 L 752,536 L 752,533 L 750,533 L 748,543 L 745,544 L 745,537 L 743,535 L 721,527 L 718,523 L 710,529 L 709,525 L 712,516 L 710,516 L 708,520 L 704,520 L 671,507 L 666,509 L 660,504 L 591,479 L 590,475 L 594,471 L 594,468 L 612,434 L 611,421 L 603,415 L 593,415 L 593,417 L 600,417 L 606,420 L 609,424 L 609,428 L 605,429 L 600,426 L 594,426 L 589,431 L 569,474 L 569,481 L 572,483 L 570,491 L 535,551 L 530,552 L 526,549 L 526,543 L 521,538 L 512,511 L 510,511 L 505,517 L 506,543 L 503,544 L 501,542 L 496,529 L 493,528 L 490,534 L 491,551 L 488,552 L 484,544 L 481,543 L 478,552 L 479,568 L 489,579 L 486,584 L 487,592 L 494,597 L 504,598 L 514,590 L 527,590 L 535,586 L 542,579 L 545,570 L 552,570 L 557,565 L 561,553 L 565,556 L 566,568 L 568,568 L 570,562 L 569,548 L 576,541 L 578,521 L 581,516 L 592,511 L 605,509 L 625,511 L 629,513 L 628,516 L 618,516 L 613,519 L 609,556 L 615,569 L 606,570 L 597,574 L 588,586 L 585,599 L 581,597 L 580,589 L 577,588 L 569,607 L 568,616 L 565,617 L 564,612 L 562,612 L 537,640 L 520,666 L 504,704 L 491,751 L 487,752 L 487,754 L 496,760 L 497,763 L 494,764 L 493,762 L 484,759 L 474,794 L 473,804 L 469,806 L 467,804 L 467,797 L 480,748 L 486,750 L 483,738 L 497,680 L 495,680 L 480,727 L 460,806 L 454,814 L 448,830 L 437,837 L 428,847 L 426,853 L 427,864 L 422,870 L 417,882 L 437,876 L 438,879 L 427,885 L 412,900 L 412,902 L 431,901 L 439,904 L 449,912 L 452,919 L 448,920 L 435,915 L 418,915 L 404,921 L 402,919 L 404,899 L 402,899 L 396,915 L 396,928 L 401,936 L 407,938 L 406,948 L 409,952 L 419,957 L 436,961 L 447,959 L 454,954 L 458,955 L 456,964 L 450,970 L 446,978 L 420,1065 L 417,1082 L 417,1099 L 421,1105 L 429,1106 L 435,1103 L 453,1083 L 469,1057 L 508,978 L 512,973 L 516,973 L 523,976 L 523,981 L 508,1028 L 498,1070 L 490,1120 L 490,1143 L 492,1152 L 498,1161 L 507,1165 L 513,1165 L 531,1157 L 546,1142 L 570,1108 L 598,1054 L 638,958 L 646,944 L 648,933 L 666,889 L 678,852 L 701,834 L 728,806 L 746,784 L 760,762 L 772,729 L 776,697 L 782,669 L 806,625 L 816,598 L 820,580 L 825,578 L 854,589 L 856,616 L 851,621 L 847,631 L 848,641 L 853,650 L 847,663 L 851,675 L 837,683 L 835,693 L 842,700 L 852,700 L 862,694 L 865,694 L 874,700 L 881,701 L 898,698 L 915,685 L 920,675 L 927,667 L 927,659 L 925,659 L 924,656 L 927,654 L 931,646 L 931,637 L 927,629 L 922,627 L 922,623 L 937,579 L 953,548 L 953,535 Z M 471,1011 L 474,1012 L 473,1017 L 470,1016 Z M 600,983 L 603,982 L 604,985 L 601,986 Z M 465,974 L 466,977 L 462,984 L 457,986 L 457,975 Z M 487,958 L 488,962 L 478,983 L 470,1013 L 466,1018 L 466,1020 L 471,1018 L 472,1021 L 470,1022 L 458,1053 L 441,1083 L 430,1096 L 425,1097 L 421,1091 L 421,1082 L 430,1041 L 433,1040 L 436,1042 L 452,994 L 456,994 L 453,1007 L 453,1013 L 455,1013 L 484,959 Z M 472,956 L 475,955 L 476,958 L 473,959 Z M 474,951 L 477,950 L 478,953 L 475,954 Z M 560,918 L 561,922 L 536,995 L 538,995 L 558,940 L 568,921 L 597,931 L 599,933 L 597,942 L 602,938 L 605,939 L 605,942 L 571,1015 L 551,1053 L 528,1091 L 516,1103 L 511,1099 L 513,1073 L 511,1073 L 507,1117 L 508,1122 L 512,1126 L 520,1123 L 532,1111 L 544,1094 L 570,1048 L 598,987 L 601,986 L 602,990 L 574,1056 L 546,1112 L 529,1137 L 515,1151 L 506,1153 L 500,1148 L 498,1143 L 497,1116 L 500,1089 L 508,1050 L 526,989 L 530,988 L 554,922 L 557,918 Z M 546,914 L 549,913 L 550,916 L 547,917 Z M 481,908 L 484,912 L 484,917 L 472,942 L 469,943 L 469,929 L 477,910 Z M 571,889 L 572,895 L 569,903 L 566,904 L 565,899 L 568,890 Z M 487,886 L 490,886 L 497,891 L 496,903 L 491,914 L 488,913 L 482,900 Z M 470,842 L 469,845 L 456,844 L 449,847 L 440,856 L 438,866 L 431,873 L 428,872 L 433,859 L 433,848 L 441,840 L 447,838 L 464,838 Z M 471,808 L 473,812 L 463,818 L 461,827 L 458,828 L 457,820 L 459,815 L 463,811 Z M 754,751 L 757,750 L 758,753 L 755,754 Z M 660,742 L 661,746 L 616,911 L 612,913 L 611,911 L 605,911 L 578,901 L 577,897 L 581,896 L 580,890 L 622,802 L 656,744 Z M 768,700 L 769,703 L 764,735 L 760,748 L 757,749 L 756,744 L 760,729 L 760,713 L 758,710 L 764,702 Z M 910,679 L 909,682 L 905,684 L 902,683 L 905,678 Z M 875,665 L 878,664 L 879,667 L 876,668 Z M 918,659 L 921,658 L 922,661 L 919,662 Z M 866,640 L 868,640 L 870,645 L 875,649 L 874,652 L 869,651 L 864,646 Z M 920,636 L 923,637 L 921,642 L 918,641 Z M 753,590 L 769,591 L 782,596 L 794,606 L 799,614 L 799,628 L 773,680 L 770,679 L 770,669 L 765,658 L 758,652 L 748,649 L 754,640 L 765,600 L 765,596 L 753,594 Z M 797,569 L 815,576 L 815,583 L 811,594 L 808,593 L 806,584 L 796,572 Z M 512,570 L 517,570 L 519,574 L 514,574 Z M 719,555 L 722,556 L 722,566 L 716,564 Z M 518,556 L 522,555 L 528,564 L 520,564 L 517,561 Z M 565,536 L 568,537 L 566,542 L 563,541 Z M 934,537 L 942,534 L 947,539 L 946,545 L 942,546 L 941,542 L 935,540 Z M 696,533 L 698,539 L 694,553 L 696,553 L 703,537 L 707,539 L 707,542 L 702,553 L 695,561 L 695,563 L 700,564 L 700,568 L 677,636 L 668,644 L 668,647 L 679,646 L 694,653 L 691,638 L 714,573 L 719,569 L 722,573 L 722,578 L 703,633 L 708,644 L 705,666 L 710,674 L 713,691 L 712,711 L 708,734 L 694,785 L 672,848 L 669,853 L 666,852 L 680,782 L 678,782 L 662,832 L 618,943 L 613,947 L 612,944 L 634,883 L 662,790 L 675,730 L 676,714 L 673,704 L 666,703 L 662,705 L 644,728 L 633,749 L 630,750 L 629,747 L 662,679 L 667,672 L 678,663 L 684,660 L 691,660 L 687,655 L 680,652 L 669,653 L 653,663 L 642,677 L 637,690 L 641,691 L 641,694 L 632,710 L 581,831 L 561,883 L 561,891 L 554,891 L 550,895 L 549,901 L 551,905 L 548,906 L 544,904 L 542,899 L 569,833 L 567,833 L 525,906 L 523,906 L 522,903 L 524,902 L 532,884 L 532,881 L 530,880 L 530,866 L 533,857 L 531,857 L 528,863 L 525,862 L 528,847 L 526,847 L 518,859 L 518,862 L 511,866 L 511,878 L 513,883 L 504,906 L 502,906 L 501,903 L 506,889 L 506,883 L 500,878 L 495,877 L 493,872 L 496,863 L 503,855 L 546,785 L 567,761 L 572,760 L 573,765 L 566,788 L 539,858 L 539,863 L 542,863 L 572,799 L 572,792 L 587,744 L 589,742 L 593,743 L 588,763 L 590,763 L 600,738 L 629,680 L 643,644 L 648,638 L 666,625 L 677,594 L 675,594 L 666,606 L 629,642 L 626,648 L 626,662 L 623,678 L 605,724 L 602,725 L 601,720 L 599,720 L 595,726 L 576,740 L 565,751 L 548,774 L 508,841 L 503,845 L 502,841 L 505,827 L 520,792 L 537,766 L 539,754 L 564,726 L 580,703 L 588,685 L 597,653 L 621,634 L 642,610 L 645,611 L 643,619 L 646,619 L 670,594 L 688,555 L 692,534 Z M 591,498 L 589,502 L 572,516 L 569,515 L 569,513 L 587,497 Z M 585,487 L 586,491 L 581,498 L 577,500 L 576,497 L 579,491 Z" fill="#111820" fill-rule="evenodd"/>
<path d="M 821,328 L 821,330 L 830,333 L 834,337 L 841,334 L 850,335 L 849,332 L 842,331 L 840,327 L 851,320 L 851,318 L 839,318 L 830,314 L 836,328 Z" fill="#111820" fill-rule="evenodd"/>
<path d="M 767,221 L 764,222 L 762,231 L 763,247 L 766,246 L 770,230 Z" fill="#111820" fill-rule="evenodd"/>
<path d="M 946,165 L 944,165 L 942,184 L 935,204 L 926,219 L 909,235 L 909,237 L 932,229 L 945,214 L 949,202 L 949,177 Z" fill="#111820" fill-rule="evenodd"/>
<path d="M 645,215 L 618,240 L 608,254 L 602,270 L 573,299 L 568,314 L 565,315 L 565,317 L 567,317 L 568,314 L 572,315 L 578,334 L 547,372 L 532,387 L 532,389 L 538,392 L 541,397 L 536,398 L 539,407 L 539,419 L 527,473 L 529,499 L 540,503 L 541,474 L 556,449 L 561,421 L 598,397 L 616,381 L 620,381 L 646,397 L 647,400 L 644,401 L 643,399 L 631,397 L 628,422 L 618,448 L 618,451 L 626,451 L 636,455 L 637,458 L 616,458 L 606,465 L 606,468 L 681,496 L 685,496 L 691,480 L 700,481 L 709,488 L 710,505 L 716,507 L 723,502 L 729,502 L 745,507 L 754,514 L 754,524 L 827,549 L 832,523 L 832,485 L 829,465 L 829,440 L 845,428 L 845,426 L 830,429 L 794,428 L 793,425 L 838,421 L 857,417 L 878,409 L 879,416 L 873,448 L 875,460 L 870,486 L 870,519 L 861,535 L 858,559 L 889,568 L 886,552 L 891,540 L 903,531 L 911,531 L 915,535 L 918,534 L 917,529 L 912,526 L 911,523 L 918,516 L 917,486 L 920,472 L 940,465 L 941,474 L 939,487 L 941,487 L 955,436 L 957,422 L 969,400 L 975,374 L 975,355 L 968,328 L 951,295 L 921,255 L 924,245 L 896,252 L 872,251 L 848,245 L 817,233 L 794,219 L 776,202 L 764,183 L 760,173 L 759,163 L 757,163 L 758,189 L 717,189 L 693,193 L 670,201 Z M 815,457 L 823,458 L 827,486 L 827,521 L 822,543 L 818,540 L 820,497 L 814,463 Z M 948,431 L 949,437 L 946,453 L 943,457 L 936,459 L 935,455 L 937,449 L 928,449 L 927,446 L 936,444 L 938,442 L 938,437 Z M 662,334 L 666,335 L 666,342 L 670,355 L 678,370 L 687,380 L 686,383 L 682,382 L 663,363 L 652,348 L 652,345 Z M 761,269 L 764,270 L 767,307 L 773,324 L 778,332 L 777,335 L 771,331 L 764,320 L 758,303 L 758,278 Z M 919,260 L 923,262 L 936,278 L 955,307 L 966,331 L 970,348 L 971,367 L 967,388 L 956,411 L 945,424 L 943,424 L 942,421 L 945,419 L 949,411 L 957,384 L 957,353 L 951,333 L 940,331 L 940,329 L 947,323 L 947,320 L 928,285 L 916,271 Z M 911,260 L 912,265 L 908,279 L 903,288 L 897,292 L 896,289 L 908,261 Z M 785,230 L 792,232 L 792,229 L 796,228 L 827,243 L 859,254 L 880,257 L 909,256 L 909,259 L 904,261 L 871,261 L 855,259 L 794,234 L 794,239 L 790,243 L 785,242 L 787,257 L 791,268 L 804,283 L 813,289 L 827,292 L 839,287 L 849,279 L 854,279 L 856,281 L 855,298 L 860,296 L 868,300 L 875,300 L 888,296 L 891,297 L 887,308 L 878,321 L 839,362 L 837,362 L 830,353 L 832,349 L 841,345 L 841,343 L 836,341 L 818,340 L 828,353 L 807,358 L 791,338 L 775,308 L 771,294 L 771,274 L 776,251 L 780,241 L 784,238 Z M 780,229 L 781,222 L 789,224 L 788,227 L 785,227 L 784,231 Z M 765,210 L 767,210 L 772,216 L 776,231 L 768,253 L 767,265 L 763,266 L 756,253 L 754,229 L 758,216 Z M 762,198 L 761,202 L 733,203 L 692,212 L 689,214 L 692,228 L 691,231 L 687,229 L 684,223 L 675,221 L 652,233 L 635,248 L 622,264 L 611,283 L 607,297 L 602,297 L 602,289 L 600,289 L 594,297 L 592,303 L 594,316 L 591,317 L 588,312 L 585,312 L 581,322 L 577,322 L 574,309 L 575,305 L 598,282 L 603,282 L 610,262 L 619,247 L 628,236 L 650,216 L 675,202 L 709,193 L 741,192 L 756,194 Z" fill="#111820" fill-rule="evenodd"/>
<path d="M 782,108 L 777,115 L 773,128 L 774,151 L 780,170 L 793,192 L 811,209 L 828,218 L 828,215 L 820,203 L 804,170 L 788,126 L 785,127 L 782,136 L 778,136 L 780,125 L 784,119 L 784,108 Z" fill="#111820" fill-rule="evenodd"/>
<path d="M 905,103 L 903,103 L 903,106 L 908,118 L 914,121 L 918,127 L 915,128 L 911,126 L 913,154 L 909,180 L 901,204 L 887,231 L 897,227 L 909,215 L 915,206 L 925,183 L 929,162 L 927,137 L 923,125 L 916,113 Z" fill="#111820" fill-rule="evenodd"/>
<path d="M 810,87 L 800,92 L 801,99 L 805,108 L 821,108 L 831,119 L 830,123 L 817,123 L 813,125 L 813,128 L 837,195 L 853,223 L 858,229 L 860,229 L 853,175 L 838,123 L 821,92 L 815,86 Z" fill="#111820" fill-rule="evenodd"/>
<path d="M 834,81 L 834,83 L 837,84 L 851,100 L 863,129 L 871,170 L 872,227 L 874,227 L 885,201 L 893,161 L 893,135 L 891,124 L 881,98 L 873,89 L 856,82 Z M 863,92 L 869,94 L 877,103 L 881,114 L 882,129 L 879,128 L 869,103 L 862,95 Z" fill="#111820" fill-rule="evenodd"/>
<path d="M 734,130 L 640,129 L 607,131 L 534,139 L 467,151 L 402,167 L 320,194 L 260,220 L 207,248 L 168,273 L 126,305 L 88,339 L 59,369 L 59,516 L 61,516 L 86,476 L 114,439 L 136,413 L 186,362 L 217,334 L 260,300 L 335,251 L 366,234 L 421,208 L 501,178 L 564,160 L 608,150 L 663,140 L 734,132 Z" fill="#0877c9" fill-rule="evenodd"/>
<path d="M 800,728 L 863,714 L 865,711 L 852,714 L 840,713 L 827,703 L 824,691 L 804,695 Z" fill="#ed0924" fill-rule="evenodd"/>
<path d="M 1150,662 L 1036,665 L 943,673 L 940,675 L 936,686 L 924,702 L 1069,675 L 1150,664 Z" fill="#ed0924" fill-rule="evenodd"/>
<path d="M 513,337 L 452,345 L 391,359 L 358,369 L 306,389 L 265,409 L 217,437 L 188,457 L 149,488 L 125,510 L 92,545 L 59,587 L 59,738 L 62,737 L 102,671 L 145,614 L 179,575 L 235,521 L 285,481 L 343,443 L 414,408 L 450,394 L 480,385 L 489,367 L 510,343 Z" fill="#ed0924" fill-rule="evenodd"/>
<path d="M 487,657 L 454,663 L 381,685 L 338,702 L 298,721 L 226,764 L 186,794 L 146,829 L 103,873 L 59,931 L 59,1066 L 62,1065 L 104,999 L 136,957 L 174,912 L 213,872 L 264,826 L 323,782 L 401,736 L 443,716 L 469,706 L 471,704 L 477,679 Z" fill="#f8c300" fill-rule="evenodd"/>
<path d="M 1144,798 L 1041,807 L 936,823 L 850,841 L 743,871 L 708,883 L 687,945 L 818,892 L 939,850 L 1038,822 L 1118,804 L 1144,800 Z" fill="#25a62a" fill-rule="evenodd"/>
<path d="M 445,794 L 409,807 L 373,823 L 322,849 L 269,881 L 225,913 L 189,943 L 130,1002 L 97,1043 L 65,1092 L 65,1100 L 75,1130 L 90,1158 L 106,1180 L 108,1180 L 132,1140 L 167,1089 L 201,1045 L 239,1002 L 284,957 L 326,921 L 370,888 L 411,862 L 415,843 L 419,836 L 437,821 Z" fill="#25a62a" fill-rule="evenodd"/>
</svg>